<?xml version="1.0" standalone="no"?>
<!DOCTYPE svg PUBLIC "-//W3C//DTD SVG 20010904//EN"
 "http://www.w3.org/TR/2001/REC-SVG-20010904/DTD/svg10.dtd">
<svg version="1.0" xmlns="http://www.w3.org/2000/svg"
 width="716.000000pt" height="783.000000pt" viewBox="0 0 716.000000 783.000000"
 preserveAspectRatio="xMidYMid meet">

<g transform="translate(0.000000,783.000000) scale(0.100000,-0.100000)"
fill="#000000" stroke="none">
<path d="M3325 7016 c-121 -73 -411 -247 -645 -386 -234 -139 -513 -305 -620
-370 -107 -64 -256 -152 -330 -195 -74 -43 -156 -91 -182 -108 l-48 -29 0
-1164 0 -1164 58 -37 c31 -20 136 -83 232 -138 195 -113 508 -297 705 -414 72
-43 191 -113 265 -156 74 -43 189 -110 255 -150 114 -68 410 -243 504 -298
l45 -26 45 27 c25 14 78 45 116 67 39 23 126 75 195 115 69 40 191 113 272
161 81 49 169 101 195 116 27 14 98 56 158 93 61 37 164 98 230 137 248 144
675 395 780 458 l70 41 2 1165 3 1164 -33 21 c-17 11 -72 45 -122 74 -246 144
-942 558 -1280 760 -571 340 -621 370 -636 369 -8 0 -113 -60 -234 -133z m353
-288 c59 -34 123 -71 142 -83 40 -26 372 -223 630 -375 96 -56 195 -115 220
-130 25 -15 128 -75 230 -135 102 -60 240 -142 308 -182 l122 -74 0 -958 c0
-527 -3 -972 -6 -990 -5 -26 -21 -40 -103 -89 -94 -58 -717 -425 -756 -446
-11 -6 -92 -54 -180 -107 -88 -53 -216 -129 -285 -169 -69 -40 -192 -114 -273
-163 -92 -55 -155 -87 -166 -84 -10 2 -151 83 -312 179 -295 175 -695 411
-844 498 -44 26 -147 86 -230 135 -82 49 -175 103 -205 120 -30 17 -81 48
-113 69 l-57 37 2 987 3 987 195 116 c107 64 341 203 520 309 179 106 384 228
455 270 433 259 571 339 583 340 7 0 61 -28 120 -62z"/>
<path d="M3245 6447 c-170 -101 -443 -262 -605 -359 -162 -96 -384 -228 -493
-292 -109 -65 -200 -123 -203 -129 -2 -7 -3 -393 -2 -858 l3 -846 135 78 135
78 3 693 3 693 177 105 c262 155 403 238 542 320 69 40 206 121 305 180 99 59
211 125 249 147 l68 40 157 -95 c86 -52 181 -109 211 -127 30 -17 123 -71 205
-120 260 -153 318 -187 385 -225 116 -66 306 -177 348 -204 l42 -26 0 -689 c0
-539 3 -691 13 -699 14 -11 258 -152 263 -152 2 0 4 385 4 855 l0 855 -37 23
c-21 13 -103 63 -183 109 -80 47 -235 139 -345 204 -110 64 -225 132 -255 149
-124 72 -294 173 -532 316 -138 84 -259 153 -267 156 -9 2 -155 -79 -326 -180z"/>
<path d="M3290 5973 c-444 -263 -750 -445 -837 -498 l-93 -56 0 -599 c0 -362
4 -600 9 -600 5 0 83 42 173 94 l163 93 3 420 2 421 151 93 c84 52 259 159
391 239 l239 145 5 176 c3 98 2 179 -3 182 -5 3 -96 -47 -203 -110z"/>
<path d="M3633 5953 c4 -71 7 -153 7 -183 0 -52 2 -57 33 -74 139 -81 672
-402 703 -424 l39 -29 2 -394 c1 -217 2 -403 3 -414 0 -14 17 -29 53 -49 28
-16 100 -58 158 -92 58 -35 113 -66 122 -70 16 -6 17 39 17 594 l0 601 -130
78 c-71 43 -164 98 -207 122 -43 24 -193 112 -333 195 -357 210 -455 266 -466
266 -4 0 -4 -57 -1 -127z"/>
<path d="M3545 5591 c-6 -5 -37 -25 -70 -44 -33 -19 -130 -77 -215 -129 -85
-53 -193 -119 -240 -147 -125 -77 -123 -71 -43 -120 330 -199 588 -351 592
-349 9 4 549 327 605 362 l49 30 -24 19 c-24 19 -213 134 -439 267 -69 41
-140 84 -159 97 -38 26 -43 27 -56 14z"/>
<path d="M2862 4699 l3 -352 265 -158 c146 -87 283 -170 306 -184 23 -14 44
-25 48 -25 3 0 6 157 6 348 l0 348 -302 183 c-166 101 -307 185 -315 188 -11
4 -13 -55 -11 -348z"/>
<path d="M3990 4885 c-140 -85 -276 -167 -302 -182 l-48 -28 0 -347 c0 -192 2
-348 4 -348 17 0 621 368 620 378 -1 7 -2 163 -2 347 -1 184 -5 335 -9 335 -5
0 -123 -70 -263 -155z"/>
<path d="M4332 4218 c-35 -21 -145 -87 -245 -147 -100 -59 -258 -154 -351
-210 -168 -102 -170 -103 -195 -87 -95 61 -769 461 -791 469 -25 9 -41 2 -179
-79 -148 -87 -150 -89 -129 -106 12 -9 130 -78 263 -154 243 -140 294 -169
650 -379 110 -65 204 -118 210 -118 9 0 450 256 625 363 83 51 445 258 482
277 21 10 38 21 38 25 0 4 -14 15 -31 24 -18 9 -76 42 -129 74 -162 96 -145
93 -218 48z"/>
<path d="M2245 3971 c-17 -10 -78 -47 -137 -82 -60 -35 -108 -66 -108 -69 1
-3 107 -67 238 -143 428 -248 813 -474 1166 -685 l158 -94 42 22 c22 13 73 42
111 65 68 41 291 173 635 376 91 53 183 108 205 121 22 14 83 50 135 80 231
134 441 260 438 263 -13 13 -270 155 -281 155 -7 0 -60 -27 -118 -61 -57 -34
-174 -102 -259 -151 -85 -50 -191 -112 -235 -138 -44 -26 -147 -86 -230 -135
-82 -49 -204 -121 -270 -160 -66 -40 -130 -77 -142 -84 -27 -14 -32 -12 -218
99 -211 125 -355 209 -625 365 -140 81 -295 171 -345 200 -135 79 -127 76
-160 56z"/>
<path d="M2278 7009 c-12 -7 -18 -22 -18 -49 0 -62 -6 -70 -60 -70 -33 0 -52
-5 -63 -18 -36 -39 -7 -72 63 -72 l48 0 7 -47 c4 -27 12 -54 17 -60 27 -33 68
2 68 57 0 44 4 48 55 55 62 8 75 15 75 40 0 31 -27 45 -84 45 l-46 0 0 48 c0
35 -5 54 -18 65 -21 20 -21 20 -44 6z"/>
<path d="M4792 6997 c-6 -7 -12 -33 -14 -57 l-3 -45 -51 -3 c-58 -3 -90 -27
-80 -60 8 -23 34 -32 94 -32 l42 0 0 -44 c0 -45 18 -76 45 -76 22 0 45 41 45
81 l0 36 57 6 c63 7 88 24 79 55 -8 23 -33 32 -93 32 l-43 0 0 41 c0 22 -5 49
-10 60 -12 22 -52 25 -68 6z"/>
<path d="M5446 6804 c-12 -11 -16 -35 -16 -84 0 -44 -4 -72 -12 -76 -7 -5 -44
-11 -83 -14 -64 -5 -70 -7 -79 -32 -16 -45 5 -58 89 -58 83 0 85 -2 85 -81 0
-63 13 -89 45 -89 33 0 45 27 45 98 0 70 3 72 94 72 66 0 86 11 86 45 0 38
-30 54 -105 57 l-70 3 -5 78 c-3 54 -10 81 -20 87 -22 14 -36 12 -54 -6z"/>
<path d="M1650 6771 c-5 -11 -10 -47 -10 -80 0 -33 -5 -63 -10 -66 -6 -4 -40
-8 -75 -10 -84 -4 -111 -24 -85 -65 6 -10 33 -17 87 -20 l78 -5 6 -65 c6 -78
12 -90 43 -90 35 0 45 19 48 90 l3 65 73 5 c50 3 76 10 82 20 28 44 -4 69 -86
70 -71 0 -74 3 -74 85 0 57 -16 85 -50 85 -11 0 -24 -9 -30 -19z"/>
<path d="M1060 5461 c-5 -11 -10 -38 -10 -60 0 -41 0 -41 -38 -41 -49 0 -75
-19 -70 -51 2 -20 11 -26 48 -33 25 -5 47 -11 49 -13 3 -2 7 -22 10 -45 12
-82 68 -77 86 8 11 48 12 49 50 52 46 4 65 17 65 42 0 18 -37 35 -89 42 -22 3
-25 8 -26 47 -2 62 -51 96 -75 52z"/>
<path d="M5997 5463 c-4 -3 -7 -27 -7 -53 l0 -47 -52 -9 c-50 -9 -53 -11 -53
-39 0 -28 3 -30 45 -35 45 -5 45 -5 55 -54 18 -85 74 -90 86 -8 6 49 11 55 47
59 65 8 73 12 70 41 -3 24 -9 28 -53 36 -27 5 -51 10 -52 11 -2 1 -5 21 -8 45
-3 23 -8 47 -11 51 -6 11 -58 12 -67 2z"/>
<path d="M1062 4498 c-7 -7 -12 -31 -12 -55 0 -46 -4 -49 -75 -55 -23 -2 -31
-9 -33 -27 -5 -32 10 -44 60 -50 41 -6 43 -8 48 -46 7 -50 16 -65 39 -65 26 0
39 19 47 67 6 39 8 41 50 48 73 11 84 75 14 75 -47 0 -60 10 -60 44 0 58 -46
96 -78 64z"/>
<path d="M6002 4498 c-7 -7 -12 -29 -12 -49 0 -43 -4 -47 -62 -57 -35 -6 -44
-12 -46 -32 -5 -30 21 -50 64 -50 30 0 34 -3 39 -37 8 -51 18 -67 42 -71 27
-4 42 17 45 66 3 40 5 42 35 42 53 0 83 16 83 45 0 28 -13 36 -63 40 -18 2
-35 3 -38 4 -4 1 -9 19 -12 41 -8 63 -43 90 -75 58z"/>
<path d="M1662 3148 c-7 -7 -12 -37 -12 -67 0 -31 -4 -62 -8 -68 -5 -7 -37
-16 -73 -19 -80 -8 -108 -34 -73 -68 11 -11 35 -16 79 -16 l64 0 5 -32 c3 -18
7 -51 8 -72 3 -46 28 -67 56 -50 13 8 18 27 20 75 2 35 8 67 15 71 7 4 37 8
68 8 55 0 89 18 89 48 0 23 -45 42 -101 42 -65 0 -69 4 -69 84 0 53 -12 76
-40 76 -9 0 -21 -5 -28 -12z"/>
<path d="M5441 3151 c-9 -6 -16 -35 -20 -77 -6 -67 -6 -68 -40 -77 -19 -4 -43
-6 -54 -3 -10 2 -30 0 -44 -5 -20 -7 -24 -15 -21 -41 l3 -33 78 -3 77 -3 0
-52 c0 -73 9 -96 37 -103 36 -9 47 9 53 84 l5 67 63 5 c40 3 66 10 72 20 25
39 0 60 -80 67 l-60 6 0 56 c0 79 -29 117 -69 92z"/>
<path d="M2266 2798 c-3 -13 -8 -40 -11 -60 -6 -39 -10 -41 -94 -50 -32 -4
-50 -32 -35 -55 8 -13 27 -19 66 -21 l55 -3 6 -51 c6 -51 20 -78 41 -78 27 1
41 22 46 72 l5 53 50 3 c59 4 77 16 73 51 -3 24 -8 27 -65 35 l-63 9 0 46 c0
52 -13 71 -47 71 -15 0 -24 -7 -27 -22z"/>
<path d="M4790 2801 c-5 -11 -10 -37 -10 -59 0 -36 -3 -40 -31 -46 -17 -3 -44
-6 -60 -6 -35 0 -55 -30 -39 -60 8 -15 23 -20 68 -22 l57 -3 3 -47 c2 -35 9
-52 25 -63 27 -19 32 -19 51 1 10 10 16 33 16 65 l0 49 51 0 c58 0 89 13 89
38 0 29 -21 42 -66 42 -64 0 -74 7 -74 52 0 52 -15 78 -45 78 -14 0 -29 -8
-35 -19z"/>
<path d="M2775 2111 c-265 -65 -454 -323 -431 -588 11 -137 66 -250 174 -358
251 -252 664 -210 872 90 63 92 89 165 97 272 12 167 -42 308 -167 434 -145
147 -341 201 -545 150z m257 -279 c66 -29 132 -93 159 -155 99 -226 -122 -464
-362 -392 -146 44 -238 197 -205 339 25 106 79 168 185 213 68 29 152 27 223
-5z"/>
<path d="M1207 2103 c-19 -18 7 -61 168 -280 96 -131 173 -243 171 -250 -3 -6
-82 -117 -175 -246 -94 -129 -171 -244 -171 -254 0 -11 9 -28 19 -38 17 -15
36 -17 139 -14 89 3 122 8 133 19 19 20 84 110 142 195 26 39 56 81 67 95 l20
25 23 -29 c30 -40 109 -150 152 -213 60 -89 70 -93 204 -93 104 0 120 2 139
20 13 13 19 27 15 38 -7 20 -162 241 -276 392 -43 57 -76 111 -74 120 5 18
129 193 246 348 47 63 90 120 95 127 7 9 5 19 -3 29 -11 13 -38 16 -156 16
l-143 0 -30 -37 c-16 -21 -48 -67 -72 -103 -24 -36 -46 -67 -49 -70 -3 -3 -19
-24 -35 -47 -16 -24 -30 -43 -32 -43 -1 0 -38 48 -80 108 -43 59 -91 126 -108
149 l-31 42 -146 1 c-80 0 -149 -3 -152 -7z"/>
<path d="M3706 2094 c-3 -9 -6 -246 -6 -528 0 -484 1 -514 18 -529 15 -14 40
-17 118 -17 151 0 140 -25 136 304 -1 161 2 276 7 276 5 0 31 -29 57 -64 158
-206 353 -455 381 -483 31 -33 31 -33 130 -33 66 1 104 5 116 14 16 12 17 47
15 542 l-3 529 -124 3 c-79 2 -128 -1 -135 -8 -7 -7 -13 -110 -16 -291 l-5
-280 -97 128 c-53 70 -134 176 -180 235 -46 59 -102 132 -125 163 l-43 55
-119 0 c-99 0 -120 -3 -125 -16z"/>
<path d="M4936 2094 c-14 -14 -16 -74 -16 -512 0 -273 3 -507 6 -518 11 -42
36 -44 450 -44 l395 0 24 25 c23 22 25 32 25 118 0 59 -4 97 -12 105 -9 9 -92
12 -310 12 l-298 0 0 75 0 75 228 0 c278 0 262 -8 262 131 0 61 -4 99 -12 107
-9 9 -77 12 -245 12 l-233 0 0 85 0 85 300 0 c350 0 320 -12 320 130 0 144 48
130 -445 130 -372 0 -425 -2 -439 -16z"/>
</g>
</svg>
