<?xml version="1.0" standalone="no"?>
<!DOCTYPE svg PUBLIC "-//W3C//DTD SVG 20010904//EN"
 "http://www.w3.org/TR/2001/REC-SVG-20010904/DTD/svg10.dtd">
<svg version="1.0" xmlns="http://www.w3.org/2000/svg"
 width="1080.000000pt" height="1079.000000pt" viewBox="0 0 1080.000000 1079.000000"
 preserveAspectRatio="xMidYMid meet">

<g transform="translate(0.000000,1079.000000) scale(0.100000,-0.100000)"
fill="#000000" stroke="none">
<path d="M0 5395 l0 -5395 5400 0 5400 0 0 5395 0 5395 -5400 0 -5400 0 0
-5395z m10371 5119 c60 -28 125 -93 153 -153 l21 -46 0 -4925 0 -4925 -21 -46
c-28 -60 -93 -125 -153 -153 l-46 -21 -4925 0 -4925 0 -46 21 c-60 28 -125 93
-153 153 l-21 46 -3 4895 c-2 3540 0 4909 8 4947 21 98 96 181 195 215 47 16
324 17 4960 15 l4910 -2 46 -21z"/>
<path d="M5275 8446 c-161 -98 -1615 -964 -1735 -1034 -52 -30 -116 -68 -142
-85 l-48 -29 0 -1164 0 -1164 68 -43 c37 -24 121 -74 187 -112 66 -37 163 -94
215 -125 52 -31 167 -99 255 -150 88 -51 211 -124 273 -162 62 -37 115 -68
117 -68 2 0 48 -26 102 -58 54 -33 175 -104 268 -159 94 -55 260 -153 369
-218 110 -65 205 -118 211 -118 11 0 133 70 545 316 129 77 255 151 280 165
24 14 85 50 135 80 49 30 104 63 120 72 44 25 785 461 910 535 l70 41 3 1161
2 1161 -27 22 c-16 12 -71 47 -123 77 -158 93 -1198 710 -1465 870 -383 229
-442 263 -457 262 -7 0 -67 -33 -133 -73z m218 -328 c40 -23 200 -118 357
-211 157 -93 332 -198 390 -232 187 -110 342 -200 520 -305 96 -56 230 -136
298 -177 l122 -75 0 -966 c0 -532 -3 -977 -7 -990 -6 -24 -35 -42 -833 -513
-217 -128 -511 -302 -653 -387 -160 -95 -265 -152 -276 -149 -10 2 -153 84
-317 182 -401 238 -739 437 -1084 639 -118 69 -248 146 -288 171 l-72 46 2
987 3 987 185 110 c199 119 742 441 774 459 11 6 25 14 30 19 6 4 79 47 161
96 83 49 249 147 370 219 121 72 226 131 233 132 8 0 46 -19 85 -42z"/>
<path d="M5385 7988 c-28 -16 -458 -270 -790 -468 -154 -91 -388 -230 -520
-308 -132 -78 -250 -150 -263 -160 l-22 -17 2 -851 3 -851 138 79 137 80 0
692 0 691 58 34 c31 18 183 108 337 199 154 91 327 193 385 227 58 34 208 123
333 197 l228 135 212 -127 c226 -135 639 -379 747 -440 120 -68 305 -176 348
-203 l42 -27 0 -689 c0 -539 3 -691 13 -699 14 -11 258 -152 263 -152 2 0 4
385 4 855 l0 856 -57 35 c-69 41 -237 140 -423 249 -74 43 -178 104 -230 135
-52 31 -151 89 -220 130 -69 40 -251 149 -406 242 -155 92 -285 168 -290 168
-5 0 -18 -6 -29 -12z"/>
<path d="M5140 7343 c-309 -183 -736 -437 -837 -498 l-93 -56 0 -599 c0 -362
4 -600 9 -600 5 0 83 42 173 94 l163 93 3 421 2 421 188 115 c103 63 278 170
390 238 l203 123 5 176 c3 98 2 179 -3 182 -4 3 -96 -47 -203 -110z"/>
<path d="M5483 7315 c4 -76 7 -159 7 -184 0 -42 3 -49 33 -65 128 -74 672
-402 703 -424 l39 -29 2 -394 c1 -217 2 -403 3 -414 0 -14 17 -29 53 -49 28
-16 100 -58 158 -92 58 -35 113 -66 122 -70 16 -6 17 39 17 594 l0 601 -130
78 c-71 43 -164 98 -207 122 -68 39 -520 303 -703 411 -113 67 -104 74 -97
-85z"/>
<path d="M5370 6946 c-19 -13 -156 -96 -303 -186 -147 -89 -277 -170 -289
-179 -21 -17 -20 -18 48 -59 310 -187 589 -352 594 -350 8 4 547 326 602 361
27 16 46 33 43 37 -7 12 -649 401 -657 399 -2 0 -19 -11 -38 -23z"/>
<path d="M4712 6068 l3 -351 265 -158 c146 -87 283 -170 306 -184 23 -14 44
-25 48 -25 3 0 6 157 6 348 l0 348 -309 187 c-169 103 -311 187 -315 187 -3 0
-5 -158 -4 -352z"/>
<path d="M6075 6401 c-8 -7 -389 -240 -557 -340 l-28 -16 0 -347 c0 -192 2
-348 4 -348 13 0 619 366 618 373 -1 4 -2 160 -2 347 0 272 -3 340 -13 340 -7
0 -17 -4 -22 -9z"/>
<path d="M6160 5575 c-47 -28 -227 -136 -400 -240 -173 -104 -322 -193 -330
-198 -11 -6 -41 7 -110 51 -197 123 -724 432 -738 432 -9 0 -82 -39 -164 -87
-143 -85 -147 -89 -127 -104 12 -9 130 -78 263 -154 132 -76 284 -164 336
-195 52 -31 165 -97 250 -147 85 -50 182 -106 214 -126 33 -20 62 -35 65 -33
17 9 583 343 621 366 83 51 445 258 482 277 21 10 38 21 38 25 0 3 -30 23 -66
43 -36 20 -100 58 -142 84 -42 26 -84 49 -92 52 -8 3 -53 -17 -100 -46z"/>
<path d="M4070 5326 c-177 -105 -220 -131 -220 -136 0 -3 40 -27 88 -54 48
-27 186 -108 307 -179 121 -72 263 -155 315 -185 101 -58 430 -253 694 -410
l158 -94 42 22 c22 13 84 49 136 80 52 31 174 103 270 160 397 234 517 304
550 325 19 12 78 47 130 77 379 220 442 260 423 272 -58 39 -253 146 -264 146
-15 0 -35 -11 -354 -198 -307 -179 -417 -244 -490 -287 -38 -23 -152 -90 -252
-149 l-182 -107 -33 17 c-18 9 -91 51 -163 94 -277 164 -1027 600 -1080 628
-17 8 -31 4 -75 -22z"/>
<path d="M4128 8379 c-12 -7 -18 -22 -18 -49 0 -62 -6 -70 -60 -70 -33 0 -52
-5 -63 -18 -36 -39 -7 -72 63 -72 l48 0 7 -47 c4 -27 12 -54 17 -60 25 -31 68
1 68 50 0 45 10 56 54 61 63 9 76 16 76 41 0 31 -27 45 -84 45 l-46 0 0 48 c0
35 -5 54 -18 65 -21 20 -21 20 -44 6z"/>
<path d="M6642 8367 c-6 -7 -12 -33 -14 -57 l-3 -45 -58 -5 c-55 -5 -77 -18
-77 -45 0 -27 22 -39 79 -43 l61 -4 0 -43 c0 -44 19 -75 45 -75 22 0 45 41 45
81 l0 36 57 6 c63 7 88 24 79 55 -8 23 -33 32 -93 32 l-43 0 0 41 c0 22 -5 49
-10 60 -12 22 -52 25 -68 6z"/>
<path d="M7296 8174 c-12 -11 -16 -35 -16 -85 0 -65 -2 -70 -26 -79 -14 -6
-50 -10 -80 -10 -49 0 -56 -3 -66 -26 -21 -45 -2 -58 88 -64 l79 -5 3 -65 c5
-78 15 -100 47 -100 33 0 45 27 45 98 0 70 3 72 94 72 66 0 86 11 86 45 0 38
-30 54 -105 57 l-70 3 -3 75 c-2 56 -7 78 -19 88 -22 16 -38 15 -57 -4z"/>
<path d="M3500 8141 c-5 -11 -10 -47 -10 -80 0 -33 -5 -63 -10 -66 -6 -4 -40
-8 -75 -10 -84 -4 -111 -24 -85 -65 6 -10 33 -17 87 -20 l78 -5 5 -65 c6 -76
13 -90 44 -90 35 0 45 19 48 90 l3 65 73 5 c50 3 76 10 82 20 28 44 -4 69 -86
70 -71 0 -74 3 -74 85 0 57 -16 85 -50 85 -11 0 -24 -9 -30 -19z"/>
<path d="M2910 6831 c-5 -11 -10 -38 -10 -60 0 -39 -2 -41 -29 -41 -50 0 -81
-17 -81 -44 0 -30 7 -35 62 -44 42 -7 43 -9 48 -51 9 -82 67 -82 84 0 5 24 11
46 13 48 2 3 22 7 45 10 81 12 74 64 -12 79 -43 7 -44 8 -45 51 -2 62 -51 96
-75 52z"/>
<path d="M7847 6833 c-4 -3 -7 -27 -7 -53 l0 -47 -52 -9 c-48 -8 -53 -12 -56
-37 -4 -29 3 -34 58 -40 33 -3 36 -6 45 -52 18 -84 74 -88 86 -7 6 49 11 55
47 59 61 7 72 13 72 38 0 28 -30 45 -81 45 -16 0 -29 5 -30 13 -1 27 -8 71
-13 83 -5 14 -57 19 -69 7z"/>
<path d="M2912 5868 c-7 -7 -12 -31 -12 -55 0 -46 -4 -49 -75 -55 -23 -2 -31
-9 -33 -27 -5 -32 10 -44 60 -50 41 -6 43 -8 48 -46 7 -50 16 -65 39 -65 26 0
39 19 47 67 6 39 8 41 49 48 83 12 86 66 4 75 -43 5 -44 6 -50 47 -8 64 -45
93 -77 61z"/>
<path d="M7852 5868 c-7 -7 -12 -29 -12 -49 0 -43 -4 -47 -62 -57 -35 -6 -44
-12 -46 -32 -5 -30 21 -50 64 -50 30 0 34 -3 39 -37 8 -51 18 -67 42 -71 28
-4 43 18 46 67 2 39 4 41 34 41 52 0 83 16 83 44 0 34 -6 37 -101 45 -4 1 -9
19 -12 41 -8 63 -43 90 -75 58z"/>
<path d="M3512 4518 c-7 -7 -12 -37 -12 -67 0 -31 -4 -62 -8 -68 -4 -7 -39
-16 -77 -20 -63 -7 -70 -10 -73 -31 -6 -39 14 -52 84 -52 l63 0 5 -32 c3 -18
7 -51 8 -72 3 -46 28 -67 56 -50 13 8 18 27 20 75 2 35 8 67 15 71 7 4 37 8
68 8 66 0 98 24 80 58 -14 26 -32 32 -96 32 -61 0 -65 5 -65 84 0 53 -12 76
-40 76 -9 0 -21 -5 -28 -12z"/>
<path d="M7291 4521 c-9 -6 -16 -35 -20 -77 -6 -67 -6 -68 -40 -77 -19 -4 -43
-6 -54 -3 -29 7 -67 -11 -67 -33 0 -46 9 -51 86 -51 l74 0 1 -52 c1 -76 11
-102 38 -106 35 -5 46 12 51 86 l5 67 63 5 c40 3 66 10 72 20 25 39 0 60 -80
67 l-60 6 0 56 c0 79 -29 117 -69 92z"/>
<path d="M4116 4174 c-3 -9 -6 -30 -6 -47 0 -48 -14 -61 -71 -67 -98 -10 -96
-73 3 -78 l55 -3 6 -52 c12 -100 77 -104 87 -5 l5 53 50 3 c59 4 77 16 73 51
-3 24 -8 27 -65 35 l-63 9 0 46 c0 26 -5 52 -12 59 -17 17 -55 15 -62 -4z"/>
<path d="M6640 4171 c-5 -11 -10 -37 -10 -59 0 -36 -3 -40 -31 -46 -17 -3 -44
-6 -60 -6 -35 0 -55 -30 -39 -60 8 -15 23 -20 68 -22 l57 -3 3 -45 c8 -107 92
-106 92 1 l0 49 54 0 c36 0 60 5 70 16 34 34 11 64 -50 64 -64 0 -74 7 -74 52
0 52 -15 78 -45 78 -14 0 -29 -8 -35 -19z"/>
<path d="M4625 3481 c-265 -65 -451 -316 -431 -583 10 -140 64 -253 174 -363
256 -257 670 -208 881 103 55 82 81 158 88 259 12 167 -43 308 -167 434 -145
147 -341 201 -545 150z m261 -280 c64 -29 127 -92 155 -155 99 -225 -122 -463
-362 -391 -212 64 -282 332 -127 484 89 87 220 112 334 62z"/>
<path d="M3057 3473 c-18 -18 2 -55 106 -195 211 -286 239 -327 231 -340 -4
-7 -84 -117 -176 -244 -92 -128 -168 -241 -168 -251 0 -41 30 -53 132 -53 53
0 110 3 127 6 32 7 38 14 192 234 32 47 63 85 68 85 10 0 44 -44 136 -176 28
-40 66 -90 86 -111 l37 -38 118 0 c129 1 154 9 154 51 0 24 -31 70 -243 357
-59 81 -106 154 -104 162 5 18 128 193 246 348 47 63 90 120 95 127 7 9 5 19
-3 29 -11 13 -38 16 -156 16 l-143 0 -29 -37 c-16 -21 -57 -78 -91 -128 -34
-49 -70 -101 -80 -114 l-19 -23 -78 108 c-43 60 -92 128 -109 151 l-31 42
-146 1 c-80 0 -149 -3 -152 -7z"/>
<path d="M5556 3464 c-3 -8 -6 -246 -6 -528 0 -484 1 -514 18 -529 15 -14 40
-17 118 -17 151 0 140 -25 136 305 -2 198 0 276 8 273 6 -2 35 -34 63 -70 318
-411 381 -490 397 -498 28 -15 202 -12 223 4 16 12 17 47 15 542 l-3 529 -125
3 c-110 2 -126 1 -138 -15 -9 -13 -12 -82 -12 -286 1 -148 0 -271 -3 -273 -2
-2 -47 54 -100 124 -53 70 -129 169 -169 221 -40 52 -96 124 -123 160 l-50 66
-121 3 c-104 2 -123 0 -128 -14z"/>
<path d="M6786 3464 c-14 -14 -16 -74 -16 -512 0 -273 3 -507 6 -518 11 -42
36 -44 450 -44 l395 0 24 25 c23 22 25 32 25 118 0 59 -4 97 -12 105 -9 9 -92
12 -310 12 l-298 0 0 75 0 75 223 0 c280 0 267 -6 267 129 0 62 -4 101 -12
109 -9 9 -77 12 -245 12 l-233 0 0 85 0 85 300 0 c350 0 320 -12 320 130 0
144 48 130 -445 130 -372 0 -425 -2 -439 -16z"/>
</g>
</svg>
